<svg xmlns="http://www.w3.org/2000/svg" viewBox="0 0 460 220"><defs><linearGradient id="g" x1="0" x2="1"><stop stop-color="#d7f7ee"/><stop offset="1" stop-color="#f0fbf7"/></linearGradient></defs><rect width="460" height="220" rx="18" fill="url(#g)"/><path d="M0 177c58-60 112-54 168 3 52-45 109-45 160 4 46-40 90-35 132 2v34H0Z" fill="#b9eadc"/><circle cx="390" cy="55" r="24" fill="#b5e6d7"/><g transform="translate(135 42)"><path d="M0 55 95 8l95 47-95 47z" fill="#0c3d78"/><path d="M45 79v49c34 22 68 22 101 0V79" fill="#1c5c9a"/><path d="M190 55v52" stroke="#e5b23c" stroke-width="6"/><circle cx="190" cy="112" r="8" fill="#e5b23c"/></g><g transform="translate(32 121)"><path d="M0 42c16-36 32-58 49-66 9 37 7 68-7 93Z" fill="#70bf80"/><path d="M30 50c29-27 55-34 78-22-12 29-39 48-78 56Z" fill="#83d090"/></g></svg>