<svg xmlns="http://www.w3.org/2000/svg" viewBox="0 0 460 220"><defs><linearGradient id="g" x1="0" x2="1"><stop stop-color="#ffe5d7"/><stop offset="1" stop-color="#fff1e8"/></linearGradient></defs><rect width="460" height="220" rx="18" fill="url(#g)"/><path d="M0 179c62-54 116-53 163 0 58-45 113-43 166 7 46-40 89-36 131 1v33H0Z" fill="#ffd2bc"/><circle cx="392" cy="55" r="22" fill="#fbcdb7"/><g transform="translate(157 36)"><rect x="0" y="28" width="145" height="126" rx="16" fill="#ef713a"/><rect x="17" y="52" width="111" height="84" rx="9" fill="#fff2ec"/><path d="M31 10v37M113 10v37" stroke="#ef713a" stroke-width="13" stroke-linecap="round"/><path d="m72 71 9 19 21 3-15 15 4 21-19-10-19 10 4-21-15-15 21-3z" fill="#ef713a"/></g></svg>