<svg xmlns="http://www.w3.org/2000/svg" viewBox="0 0 660 420" role="img" aria-labelledby="title"><title>Estudiante explorando oportunidades</title><defs><linearGradient id="bg" x1="0" x2="1"><stop stop-color="#eef8ff"/><stop offset="1" stop-color="#eafbf7"/></linearGradient><linearGradient id="sweater" x1="0" x2="1"><stop stop-color="#19b5ab"/><stop offset="1" stop-color="#42cfbb"/></linearGradient><filter id="sh"><feDropShadow dx="0" dy="7" stdDeviation="7" flood-color="#597da5" flood-opacity=".13"/></filter></defs><path d="M57 266C21 191 72 86 181 52c94-29 161 10 241 6 112-6 188 46 203 130 15 84-37 151-123 184-96 36-238 31-340-9-53-21-82-53-105-97Z" fill="url(#bg)"/><g transform="translate(196 25)"><ellipse cx="220" cy="347" rx="118" ry="22" fill="#cfe6f6" opacity=".65"/><path d="M132 179c-37 24-59 82-46 151h45c-5-55 4-100 35-128z" fill="#0b467f"/><path d="M186 46c-57 5-87 45-80 96 5 35 21 54 13 89-8 33-18 61 3 87 29 35 89 37 132 12 42-24 56-64 49-108-4-27-16-43-10-77 10-61-38-105-107-99Z" fill="#082b67"/><rect x="190" y="137" width="42" height="42" rx="18" fill="#f7bd9a"/><ellipse cx="208" cy="107" rx="53" ry="61" fill="#ffd2b5"/><path d="M157 98c5-46 35-73 79-67 40 6 62 38 55 77-16-23-43-34-77-30-24 3-43 10-57 20Z" fill="#082b67"/><ellipse cx="157" cy="113" rx="9" ry="14" fill="#ffc9aa"/><circle cx="190" cy="108" r="4" fill="#082b67"/><circle cx="226" cy="108" r="4" fill="#082b67"/><path d="M196 130c10 9 25 9 36-1" fill="none" stroke="#d96e62" stroke-width="4" stroke-linecap="round"/><path d="M130 318c7-91 24-139 75-151 53-13 99 29 114 151Z" fill="url(#sweater)"/><path d="M186 174c8 20 20 31 33 31 14 0 27-11 34-31" fill="none" stroke="#d6faf3" stroke-width="5" stroke-linecap="round"/><path d="M154 210c-31 18-46 50-52 89 14 11 28 15 42 11 11-34 21-57 39-75Z" fill="#20b6aa"/><path d="M278 205c31 16 47 49 53 90-14 12-28 16-42 12-12-35-23-58-42-76Z" fill="#21b6aa"/><path d="M119 287c15 9 33 9 53 2 17-7 30-17 42-32" fill="none" stroke="#ffd2b5" stroke-width="19" stroke-linecap="round"/><path d="M315 288c-14 9-31 11-49 5-17-5-32-16-46-29" fill="none" stroke="#ffd2b5" stroke-width="19" stroke-linecap="round"/><g transform="rotate(-8 223 255)" filter="url(#sh)"><rect x="185" y="205" width="80" height="109" rx="8" fill="#2f80ed"/><rect x="198" y="218" width="54" height="77" rx="4" fill="#e8f4ff"/></g></g><g font-family="Inter,Arial,sans-serif" font-size="16" font-weight="700" fill="#082b67" filter="url(#sh)"><g transform="translate(435 77)"><rect width="118" height="49" rx="15" fill="#fff" stroke="#dbe8f5"/><path d="M17 23 30 16l13 7-13 7z" fill="#0874e8"/><text x="52" y="30">Becas</text></g><g transform="translate(420 140)"><rect width="133" height="49" rx="15" fill="#fff" stroke="#dbe8f5"/><rect x="17" y="16" width="27" height="19" rx="3" fill="#0874e8"/><rect x="23" y="11" width="15" height="7" rx="3" fill="none" stroke="#0874e8" stroke-width="3"/><text x="54" y="30">Empleos</text></g><g transform="translate(432 203)"><rect width="121" height="49" rx="15" fill="#fff" stroke="#dbe8f5"/><rect x="18" y="14" width="27" height="24" rx="4" fill="#ef713a"/><path d="M23 10v8M40 10v8" stroke="#ef713a" stroke-width="3" stroke-linecap="round"/><text x="54" y="30">Eventos</text></g></g><g transform="translate(500 270) rotate(-7)" font-family="Inter,Arial,sans-serif" font-size="18" font-weight="800" fill="#1677d2"><text y="0">Tu futuro</text><text y="22">también</text><text y="44">está aquí</text><path d="M-12 -6l-18 -14M-14 52l-18 16" stroke="#12aaa0" stroke-width="4" stroke-linecap="round"/></g></svg>